name analog
datacolumns 19
datarows 58
range 0.0 0.0285
endheader
time	ground_force_vx	ground_force_vy	ground_force_vz	ground_force_px	ground_force_py	ground_force_pz	l_ground_force_vx	l_ground_force_vy	l_ground_force_vz	l_ground_force_px	l_ground_force_py	l_ground_force_pz	ground_torque_x	ground_torque_y	ground_torque_z	l_ground_torque_x	l_ground_torque_y	l_ground_torque_z
0.0	-0.0	-0.0	-0.0	-0.0	-0.0	-0.0	3.2357373237609863	16.63245391845703	-888.6461181640625	-0.0	-0.0	-0.0	-0.0	-0.0	-0.0	257241.9375	-10794.9609375	-2229.14892578125
0.0005	-0.0	-0.0	-0.0	-0.0	-0.0	-0.0	3.165582656860352	18.663759231567383	-900.1129150390625	-0.0	-0.0	-0.0	-0.0	-0.0	-0.0	260355.078125	-11096.0634765625	-2263.092041015625
0.001	-0.0	-0.0	-0.0	-0.0	-0.0	-0.0	1.7602717876434326	19.95567512512207	-907.719482421875	-0.0	-0.0	-0.0	-0.0	-0.0	-0.0	263183.4375	-11101.291015625	-2602.427001953125
0.0015	-0.0	-0.0	-0.0	-0.0	-0.0	-0.0	0.8593699932098389	20.780349731445312	-915.2901000976562	-0.0	-0.0	-0.0	-0.0	-0.0	-0.0	264967.15625	-11210.814453125	-2855.771484375
0.002	-0.0	-0.0	-0.0	-0.0	-0.0	-0.0	0.0057502165436744	19.45026206970215	-922.4586181640624	-0.0	-0.0	-0.0	-0.0	-0.0	-0.0	266397.0	-11238.142578125	-2886.337890625
0.0025	-0.0	-0.0	-0.0	-0.0	-0.0	-0.0	-1.3245593309402466	17.073501586914062	-927.4248657226562	-0.0	-0.0	-0.0	-0.0	-0.0	-0.0	267212.4375	-10577.48046875	-3052.00146484375
0.003	-0.0	-0.0	-0.0	-0.0	-0.0	-0.0	-2.095120429992676	14.484756469726562	-931.3748168945312	-0.0	-0.0	-0.0	-0.0	-0.0	-0.0	268129.5	-10184.7451171875	-3082.870849609375
0.0035	-0.0	-0.0	-0.0	-0.0	-0.0	-0.0	-3.500674247741699	11.50218391418457	-932.6376953125	-0.0	-0.0	-0.0	-0.0	-0.0	-0.0	267752.1875	-9783.298828125	-3164.49072265625
0.004	-0.0	-0.0	-0.0	-0.0	-0.0	-0.0	-5.138885498046875	8.288719177246094	-931.5899658203124	-0.0	-0.0	-0.0	-0.0	-0.0	-0.0	267050.9375	-9136.052734375	-3203.1455078125
0.0045000000000000005	-0.0	-0.0	-0.0	-0.0	-0.0	-0.0	-5.9165873527526855	5.197521209716797	-928.6069946289062	-0.0	-0.0	-0.0	-0.0	-0.0	-0.0	266051.84375	-8316.2958984375	-3129.1953125
0.005	-0.0	-0.0	-0.0	-0.0	-0.0	-0.0	-6.448936462402344	2.7379722595214844	-925.0927124023438	-0.0	-0.0	-0.0	-0.0	-0.0	-0.0	264281.0	-7805.51220703125	-2954.149169921875
0.0055	-0.0	-0.0	-0.0	-0.0	-0.0	-0.0	-7.09686279296875	0.6665484309196472	-920.2782592773438	-0.0	-0.0	-0.0	-0.0	-0.0	-0.0	262365.65625	-7136.00341796875	-2966.801025390625
0.006	-0.0	-0.0	-0.0	-0.0	-0.0	-0.0	-7.362995147705078	-0.543230414390564	-914.3229370117188	-0.0	-0.0	-0.0	-0.0	-0.0	-0.0	260579.921875	-6448.7451171875	-3047.369140625
0.006500000000000001	-0.0	-0.0	-0.0	-0.0	-0.0	-0.0	-7.593616485595703	-0.7198151350021362	-909.0861206054688	-0.0	-0.0	-0.0	-0.0	-0.0	-0.0	258757.296875	-6014.93115234375	-2734.675048828125
0.007	-0.0	-0.0	-0.0	-0.0	-0.0	-0.0	-7.327184677124023	-0.7553941011428833	-902.1709594726562	-0.0	-0.0	-0.0	-0.0	-0.0	-0.0	256998.46875	-5644.2001953125	-2743.33935546875
0.0075	-0.0	-0.0	-0.0	-0.0	-0.0	-0.0	-7.947991371154785	-0.6409480571746826	-897.5272216796875	-0.0	-0.0	-0.0	-0.0	-0.0	-0.0	255490.15625	-5313.384765625	-2912.89111328125
0.008	-0.0	-0.0	-0.0	-0.0	-0.0	-0.0	-7.845887660980225	-0.0391659140586853	-892.7806396484375	-0.0	-0.0	-0.0	-0.0	-0.0	-0.0	253832.40625	-4787.505859375	-2883.001708984375
0.0085	-0.0	-0.0	-0.0	-0.0	-0.0	-0.0	-7.655259609222412	1.2365036010742188	-885.951904296875	-0.0	-0.0	-0.0	-0.0	-0.0	-0.0	252407.421875	-4951.25830078125	-2916.575439453125
0.009000000000000001	-0.0	-0.0	-0.0	-0.0	-0.0	-0.0	-7.1358842849731445	2.2834136486053467	-882.3992919921875	-0.0	-0.0	-0.0	-0.0	-0.0	-0.0	250894.671875	-5024.33837890625	-2784.215576171875
0.0095	-0.0	-0.0	-0.0	-0.0	-0.0	-0.0	-6.7290873527526855	2.636775016784668	-875.6722412109375	-0.0	-0.0	-0.0	-0.0	-0.0	-0.0	249493.671875	-4778.00634765625	-2547.181640625
0.01	-0.0	-0.0	-0.0	-0.0	-0.0	-0.0	-6.40006685256958	2.8262939453125	-872.1747436523438	-0.0	-0.0	-0.0	-0.0	-0.0	-0.0	247905.890625	-4446.55859375	-2313.318603515625
0.0105	-0.0	-0.0	-0.0	-0.0	-0.0	-0.0	-6.108212471008301	2.675200939178467	-865.0	-0.0	-0.0	-0.0	-0.0	-0.0	-0.0	246719.96875	-4472.55078125	-2236.67822265625
0.011	-0.0	-0.0	-0.0	-0.0	-0.0	-0.0	-6.222511291503906	2.4095044136047363	-861.7564086914062	-0.0	-0.0	-0.0	-0.0	-0.0	-0.0	245487.859375	-4222.34326171875	-2347.272705078125
0.0115	-0.0	-0.0	-0.0	-0.0	-0.0	-0.0	-6.919441223144531	2.674673080444336	-857.7666015625	-0.0	-0.0	-0.0	-0.0	-0.0	-0.0	244650.125	-4311.64794921875	-2534.189208984375
0.012	-0.0	-0.0	-0.0	-0.0	-0.0	-0.0	-7.48963451385498	2.8894407749176025	-854.2239379882812	-0.0	-0.0	-0.0	-0.0	-0.0	-0.0	244088.84375	-3978.229248046875	-2665.90087890625
0.0125	-0.0	-0.0	-0.0	-0.0	-0.0	-0.0	-8.110426902770996	2.952831029891968	-853.2770385742188	-0.0	-0.0	-0.0	-0.0	-0.0	-0.0	243669.953125	-4254.29296875	-2696.03125
0.013000000000000001	-0.0	-0.0	-0.0	-0.0	-0.0	-0.0	-8.592406272888184	2.8387792110443115	-851.030517578125	-0.0	-0.0	-0.0	-0.0	-0.0	-0.0	243326.0625	-4114.77587890625	-2649.682861328125
0.0135	-0.0	-0.0	-0.0	-0.0	-0.0	-0.0	-9.060965538024902	3.230670690536499	-851.231689453125	-0.0	-0.0	-0.0	-0.0	-0.0	-0.0	243067.625	-4032.365234375	-2925.6904296875
0.014	-0.0	-0.0	-0.0	-0.0	-0.0	-0.0	-9.162057876586914	3.3297464847564697	-850.2330932617188	-0.0	-0.0	-0.0	-0.0	-0.0	-0.0	243184.109375	-4238.2294921875	-2934.101806640625
0.0145	-0.0	-0.0	-0.0	-0.0	-0.0	-0.0	-8.974313735961914	3.8470733165740967	-851.0284423828125	-0.0	-0.0	-0.0	-0.0	-0.0	-0.0	243155.984375	-4560.5009765625	-2708.9677734375
0.015	-0.0	-0.0	-0.0	-0.0	-0.0	-0.0	-8.1859712600708	4.339998245239258	-852.6766357421875	-0.0	-0.0	-0.0	-0.0	-0.0	-0.0	243837.6875	-4857.61279296875	-2674.483154296875
0.0155	-0.0	-0.0	-0.0	-0.0	-0.0	-0.0	-7.693341255187988	4.894277095794678	-855.915283203125	-0.0	-0.0	-0.0	-0.0	-0.0	-0.0	244451.296875	-5094.4736328125	-2407.015625
0.016	-0.0	-0.0	-0.0	-0.0	-0.0	-0.0	-6.668951511383057	5.034336090087891	-860.3574829101562	-0.0	-0.0	-0.0	-0.0	-0.0	-0.0	245425.4375	-5650.3662109375	-2267.234375
0.0165	-0.0	-0.0	-0.0	-0.0	-0.0	-0.0	-6.286334037780762	4.857692718505859	-863.7056274414062	-0.0	-0.0	-0.0	-0.0	-0.0	-0.0	246703.59375	-5911.14306640625	-2032.5615234375
0.017	-0.0	-0.0	-0.0	-0.0	-0.0	-0.0	-6.096899032592773	5.11063814163208	-867.5466918945312	-0.0	-0.0	-0.0	-0.0	-0.0	-0.0	247577.609375	-6230.0205078125	-2164.475830078125
0.0175	-0.0	-0.0	-0.0	-0.0	-0.0	-0.0	-6.274470329284668	4.769371032714844	-869.2272338867188	-0.0	-0.0	-0.0	-0.0	-0.0	-0.0	248605.75	-6300.29150390625	-2187.934814453125
0.018000000000000002	-0.0	-0.0	-0.0	-0.0	-0.0	-0.0	-6.073220729827881	4.728663444519043	-873.4832763671875	-0.0	-0.0	-0.0	-0.0	-0.0	-0.0	249187.265625	-6187.390625	-1968.940673828125
0.0185	-0.0	-0.0	-0.0	-0.0	-0.0	-0.0	-6.114576816558838	4.728429794311523	-875.1144409179688	-0.0	-0.0	-0.0	-0.0	-0.0	-0.0	250068.390625	-6704.89599609375	-1960.9742431640625
0.019	-0.0	-0.0	-0.0	-0.0	-0.0	-0.0	-5.996866703033447	4.18643045425415	-877.1619262695312	-0.0	-0.0	-0.0	-0.0	-0.0	-0.0	250817.421875	-6527.10009765625	-1759.3245849609375
0.0195	-0.0	-0.0	-0.0	-0.0	-0.0	-0.0	-5.807790279388428	4.557541370391846	-879.0000610351562	-0.0	-0.0	-0.0	-0.0	-0.0	-0.0	250736.46875	-7043.5498046875	-1620.5880126953125
0.02	-0.0	-0.0	-0.0	-0.0	-0.0	-0.0	-5.222228527069092	4.327762603759766	-879.4207763671875	-0.0	-0.0	-0.0	-0.0	-0.0	-0.0	250692.015625	-7104.23388671875	-1641.9666748046875
0.0205	-0.0	-0.0	-0.0	-0.0	-0.0	-0.0	-5.121932029724121	4.604323387145996	-879.7245483398438	-0.0	-0.0	-0.0	-0.0	-0.0	-0.0	251003.5	-7090.97265625	-1681.6397705078125
0.021	-0.0	-0.0	-0.0	-0.0	-0.0	-0.0	-4.794508457183838	4.492852210998535	-878.7689208984375	-0.0	-0.0	-0.0	-0.0	-0.0	-0.0	250814.125	-7399.3427734375	-1604.1268310546875
0.021500000000000002	-0.0	-0.0	-0.0	-0.0	-0.0	-0.0	-4.647549629211426	4.911577224731445	-878.9053344726562	-0.0	-0.0	-0.0	-0.0	-0.0	-0.0	250747.953125	-7168.5625	-1544.587890625
0.022	-0.0	-0.0	-0.0	-0.0	-0.0	-0.0	-4.678695201873779	5.080087661743164	-877.5084228515625	-0.0	-0.0	-0.0	-0.0	-0.0	-0.0	250886.828125	-7438.7646484375	-1593.4390869140625
0.0225	-0.0	-0.0	-0.0	-0.0	-0.0	-0.0	-3.671430349349976	5.265163421630859	-878.1613159179688	-0.0	-0.0	-0.0	-0.0	-0.0	-0.0	251058.046875	-7549.845703125	-1495.0303955078125
0.023	-0.0	-0.0	-0.0	-0.0	-0.0	-0.0	-3.735082626342773	4.658440113067627	-878.7252197265625	-0.0	-0.0	-0.0	-0.0	-0.0	-0.0	251092.0625	-7806.80615234375	-1366.01904296875
0.0235	-0.0	-0.0	-0.0	-0.0	-0.0	-0.0	-3.2162129878997803	3.6211891174316406	-877.3289184570312	-0.0	-0.0	-0.0	-0.0	-0.0	-0.0	251016.40625	-7764.916015625	-1354.565185546875
0.024	-0.0	-0.0	-0.0	-0.0	-0.0	-0.0	-3.2935385704040527	3.455735921859741	-877.3295288085938	-0.0	-0.0	-0.0	-0.0	-0.0	-0.0	250851.765625	-7972.3037109375	-1321.7158203125
0.0245	-0.0	-0.0	-0.0	-0.0	-0.0	-0.0	-2.872282028198242	3.2456424236297607	-875.6282348632812	-0.0	-0.0	-0.0	-0.0	-0.0	-0.0	250475.1875	-7702.64404296875	-1454.7562255859375
0.025	-0.0	-0.0	-0.0	-0.0	-0.0	-0.0	-3.093740463256836	3.3562240600585938	-874.2318115234375	-0.0	-0.0	-0.0	-0.0	-0.0	-0.0	250377.125	-8253.037109375	-1477.1015625
0.025500000000000002	-0.0	-0.0	-0.0	-0.0	-0.0	-0.0	-2.949579954147339	3.168567180633545	-872.7919311523438	-0.0	-0.0	-0.0	-0.0	-0.0	-0.0	249998.578125	-8165.4560546875	-1380.70654296875
0.026000000000000002	-0.0	-0.0	-0.0	-0.0	-0.0	-0.0	-2.550024032592773	3.6321611404418954	-869.5177001953125	-0.0	-0.0	-0.0	-0.0	-0.0	-0.0	249912.78125	-8580.583984375	-1306.1087646484375
0.0265	-0.0	-0.0	-0.0	-0.0	-0.0	-0.0	-2.783936023712158	4.051883697509766	-869.3875732421875	-0.0	-0.0	-0.0	-0.0	-0.0	-0.0	249815.96875	-8870.0732421875	-1372.82763671875
0.027	-0.0	-0.0	-0.0	-0.0	-0.0	-0.0	-2.561725854873657	5.596783638000488	-868.95263671875	-0.0	-0.0	-0.0	-0.0	-0.0	-0.0	249943.671875	-9308.0849609375	-1290.5157470703125
0.0275	-0.0	-0.0	-0.0	-0.0	-0.0	-0.0	-2.0078628063201904	6.104977130889893	-870.4432373046875	-0.0	-0.0	-0.0	-0.0	-0.0	-0.0	250272.328125	-9728.140625	-1204.5435791015625
0.028	-0.0	-0.0	-0.0	-0.0	-0.0	-0.0	-0.7876374125480652	6.921228885650635	-867.2078857421875	-0.0	-0.0	-0.0	-0.0	-0.0	-0.0	250258.96875	-10964.126953125	-1041.5220947265625
0.0285	-0.0	-0.0	-0.0	-0.0	-0.0	-0.0	0.1208994537591934	7.748081684112549	-867.94873046875	-0.0	-0.0	-0.0	-0.0	-0.0	-0.0	250700.0	-11595.888671875	-817.7755737304688
